<?xml version="1.0" encoding="utf-8"?>
<!-- Generator: Adobe Illustrator 24.1.1, SVG Export Plug-In . SVG Version: 6.00 Build 0)  -->
<svg version="1.1" id="Layer_1" xmlns="http://www.w3.org/2000/svg" xmlns:xlink="http://www.w3.org/1999/xlink" x="0px" y="0px"
	 viewBox="0 0 512 512" style="enable-background:new 0 0 512 512;" xml:space="preserve">
<style type="text/css">
	.st0{fill:#8CC5E7;}
	.st1{fill:#B8937F;}
</style>
<g>
	<path class="st0" d="M452.1,67.3c15.3,31.6-31.2,34.9-28.8,49c4.4,25.4,1.4,63.1-2,100.2c-5.8,62.9,41.3,213.6-56.8,274.1
		c-18.5,11.5-62.3,17.9-105.6,18.9h-0.2h-0.2c-43.3-1-93.1-7.3-111.6-18.9c-97.9-60.5-50.8-211.2-56.4-274.1
		c-3.6-37.1-6.6-74.8-2-100.2c2.4-14.1-44.1-17.3-28.8-49c13.1-27.2,45.5-3.2,53.6-11.7C155,12.5,205.4,1,245.1,0c4,0,21.8,0,21.8,0
		c39.5,2,89.9,12.7,131.6,55.6C406.7,64.1,438.8,40.1,452.1,67.3z M237.1,232.2c-1.8,0.8-4.8,20.2,4.4,21.2c6.2,0.6,23,2.6,27,0
		c7.7-5,6.9-16.9,2.6-19.9C263.7,228.9,239.1,231.3,237.1,232.2z M186.7,86.5c-20.4-2.4-54.8,16.7-59.9,57.2
		c-5.6,42.1,44.1,83.8,91.7,42.1C244.1,163.4,253,94.3,186.7,86.5z M324.9,86.5c-66.3,7.7-57.4,76.8-31.8,99.3
		c47.6,41.7,97.3,0,91.7-42.1C379.9,103.2,345.5,84.2,324.9,86.5z"/>
	<path class="st1" d="M256,191.2c12.5-1.8,42.5,12.5,40.5,29.4c-2.4,19.7-77.2,22.2-81.2-1.2C212.9,205.1,224.2,195.9,256,191.2z
		 M424.9,349.4c-6.2-0.2-10.1-8.3-10.1-13.3c0-8.9,1.2-19.5,7.7-24C436,302.7,446.8,349.6,424.9,349.4z M86.9,349.4
		c-21.8,0.2-11.1-46.6,2.4-37.3c6.5,4.6,7.7,15.1,7.7,24C97,341,93,349.2,86.9,349.4z M383.4,493.3c4,5.8,4.2,9.7-2.2,12.7
		c-24.2,11.1-45.9-3.8-37.7-7.9C360.8,489.3,371.5,475.6,383.4,493.3z M128.4,495.3c11.9-17.7,22.6-4,39.9,4.8
		c8.1,4.2-13.5,19.1-37.7,7.9C124.2,505,124.4,501,128.4,495.3z"/>
	<path d="M415,72.1c1-4.2,11.3-6.2,17.1,1c6.9,8.5-10.1,20.2-10.9,15.5C419.2,75.6,413.8,76.2,415,72.1z M96.8,72.1
		c1.2,4.2-4.2,3.6-6.2,16.5c-0.8,4.8-17.9-6.9-10.9-15.5C85.3,65.9,95.6,67.9,96.8,72.1z M329.4,168.7c-12.5,0-22.6-10.1-22.6-22.6
		s10.1-22.6,22.6-22.6c12.5,0,22.6,10.1,22.6,22.6S341.9,168.7,329.4,168.7z M323.5,143.5c4,0,7.2-3.2,7.2-7.2
		c0-3.9-3.2-7.1-7.2-7.1c-3.9,0-7.1,3.2-7.1,7.1C316.3,140.3,319.5,143.5,323.5,143.5z M235.6,200.7c2.4-9.1,10.7-12.1,17.5-12.3
		c17.3-0.4,23.8,8.9,24.4,16.3C278.6,217.2,230.2,220.1,235.6,200.7z M182.4,168.7c-12.5,0-22.6-10.1-22.6-22.6s10.1-22.6,22.6-22.6
		s22.6,10.1,22.6,22.6S194.9,168.7,182.4,168.7z M188.3,143.5c3.9,0,7.1-3.2,7.1-7.2c0-3.9-3.2-7.1-7.1-7.1c-4,0-7.2,3.2-7.2,7.1
		C181.2,140.3,184.4,143.5,188.3,143.5z"/>
</g>
</svg>
