<?xml version="1.0" encoding="utf-8"?>
<!-- Generator: Adobe Illustrator 26.5.0, SVG Export Plug-In . SVG Version: 6.00 Build 0)  -->
<svg version="1.1" id="Layer_1" xmlns="http://www.w3.org/2000/svg" xmlns:xlink="http://www.w3.org/1999/xlink" x="0px" y="0px"
	 viewBox="0 0 512 512" style="enable-background:new 0 0 512 512;" xml:space="preserve">
<style type="text/css">
	.st0{fill:#E44D26;}
	.st1{fill:#F16529;}
	.st2{fill:#EBEBEB;}
	.st3{fill:#FFFFFF;}
</style>
<g id="XMLID_1_">
	<polygon id="XMLID_11_" class="st0" points="107.66,470.9 74.67,100.55 437.33,100.55 404.34,470.76 255.72,512 	"/>
	<polygon id="XMLID_10_" class="st1" points="256,480.57 376.04,447.29 404.34,130.84 256,130.84 	"/>
	<polygon id="XMLID_9_" class="st2" points="256,268.23 195.84,268.23 191.72,221.72 256,221.72 256,176.36 255.86,176.36 
		142.08,176.36 143.22,188.44 154.31,313.6 256,313.6 	"/>
	<polygon id="XMLID_8_" class="st2" points="256,386.13 255.86,386.28 205.23,372.48 201.96,336.36 177.35,336.36 156.44,336.36 
		162.7,407.61 255.86,433.49 256,433.35 	"/>
	<path id="XMLID_7_" d="M108.37,0h23.04v22.76h21.05V0h23.04v68.98h-23.04V45.8h-21.05v23.18h-23.04V0L108.37,0z"/>
	<path id="XMLID_6_" d="M205.94,22.9H185.6V0h63.72v22.9h-20.34v46.08h-23.04V22.9L205.94,22.9z"/>
	<path id="XMLID_5_" d="M259.56,0h24.04l14.79,24.32L313.17,0h24.04v68.98h-22.9V34.84l-15.93,24.6h-0.43l-15.93-24.6v34.28h-22.61
		V0H259.56z"/>
	<path id="XMLID_4_" d="M348.73,0h23.04v46.22h32.43v22.76h-55.47V0z"/>
	<polygon id="XMLID_3_" class="st3" points="255.86,268.23 255.86,313.6 311.75,313.6 306.49,372.48 255.86,386.13 255.86,433.49 
		348.87,407.61 349.58,399.93 360.25,280.46 361.39,268.23 349.16,268.23 	"/>
	<polygon id="XMLID_2_" class="st3" points="255.86,176.36 255.86,204.52 255.86,221.58 255.86,221.72 365.37,221.72 365.37,221.72 
		365.51,221.72 366.51,211.48 368.5,188.44 369.64,176.36 	"/>
</g>
</svg>
