<?xml version="1.0" encoding="utf-8"?>
<!-- Generator: Adobe Illustrator 26.5.0, SVG Export Plug-In . SVG Version: 6.00 Build 0)  -->
<svg version="1.1" id="Layer_1" xmlns="http://www.w3.org/2000/svg" xmlns:xlink="http://www.w3.org/1999/xlink" x="0px" y="0px"
	 viewBox="0 0 512 512" style="enable-background:new 0 0 512 512;" xml:space="preserve">
<style type="text/css">
	.st0{fill:#F7DF1E;}
</style>
<g id="XMLID_1_">
	<rect id="XMLID_2_" class="st0" width="512" height="512"/>
	<path id="XMLID_3_" d="M134.66,427.84l39.14-23.71c7.57,13.47,14.45,24.69,30.86,24.69c15.85,0,25.81-6.17,25.81-30.3V235.1h48.11
		v164.26c0,49.8-29.18,72.52-71.82,72.52C168.33,471.88,146.03,451.96,134.66,427.84"/>
	<path id="XMLID_4_" d="M304.82,422.65l39.14-22.72c10.38,16.83,23.71,29.18,47.41,29.18c19.92,0,32.68-9.96,32.68-23.71
		c0-16.55-13.05-22.3-35.07-31.98l-12.06-5.19c-34.65-14.73-57.79-33.39-57.79-72.52c0-36.05,27.49-63.54,70.42-63.54
		c30.58,0,52.6,10.66,68.45,38.44l-37.45,23.99c-8.28-14.73-17.11-20.62-30.86-20.62c-14.03,0-23,8.98-23,20.62
		c0,14.45,8.98,20.34,29.6,29.18l12.06,5.19c40.96,17.53,63.96,35.35,63.96,75.61c0,43.34-34.09,67.05-79.68,67.05
		C347.74,471.88,318.84,450.56,304.82,422.65"/>
</g>
</svg>
