<?xml version="1.0" encoding="utf-8"?>
<!-- Generator: Adobe Illustrator 24.1.1, SVG Export Plug-In . SVG Version: 6.00 Build 0)  -->
<svg version="1.1" id="Layer_1" xmlns="http://www.w3.org/2000/svg" xmlns:xlink="http://www.w3.org/1999/xlink" x="0px" y="0px"
	 viewBox="0 0 512 512" style="enable-background:new 0 0 512 512;" xml:space="preserve">
<style type="text/css">
	.st0{fill:url(#SVGID_1_);}
	.st1{fill:url(#SVGID_2_);}
</style>
<g>
	
		<linearGradient id="SVGID_1_" gradientUnits="userSpaceOnUse" x1="0.2852" y1="511.0804" x2="2.2901" y2="511.0804" gradientTransform="matrix(126.2799 125.5782 -125.2988 126.5615 64049.7422 -64670.543)">
		<stop  offset="0" style="stop-color:#387EB8"/>
		<stop  offset="1" style="stop-color:#366994"/>
	</linearGradient>
	<path class="st0" d="M254.2,1.3c-130,0-121.9,56.4-121.9,56.4l0.1,58.4h124v17.5H83.2c0,0-83.2-9.4-83.2,121.7
		c0,131.1,72.6,126.5,72.6,126.5h43.3V321c0,0-2.3-72.6,71.4-72.6h123c0,0,69.1,1.1,69.1-66.8V69.3C379.5,69.3,390,1.3,254.2,1.3z
		 M185.8,40.6c12.3,0,22.3,10,22.3,22.3c0,12.3-10,22.3-22.3,22.3s-22.3-10-22.3-22.3C163.4,50.6,173.4,40.6,185.8,40.6z"/>
	
		<linearGradient id="SVGID_2_" gradientUnits="userSpaceOnUse" x1="0.8921" y1="511.1571" x2="2.8969" y2="511.1571" gradientTransform="matrix(135.625 128.783 -128.4964 135.9275 65764.5781 -69385.4766)">
		<stop  offset="0" style="stop-color:#FFE052"/>
		<stop  offset="1" style="stop-color:#FFC331"/>
	</linearGradient>
	<path class="st1" d="M257.8,510.7c130,0,121.9-56.4,121.9-56.4l-0.1-58.4h-124v-17.5h173.3c0,0,83.2,9.4,83.2-121.7
		c0-131.1-72.6-126.5-72.6-126.5h-43.3V191c0,0,2.3,72.6-71.4,72.6h-123c0,0-69.1-1.1-69.1,66.8v112.3
		C132.5,442.7,122,510.7,257.8,510.7z M326.2,471.4c-12.3,0-22.3-10-22.3-22.3c0-12.3,10-22.3,22.3-22.3s22.3,10,22.3,22.3
		C348.6,461.4,338.6,471.4,326.2,471.4z"/>
</g>
</svg>
